<svg xmlns="http://www.w3.org/2000/svg" xmlns:xlink="http://www.w3.org/1999/xlink" version="1.1" x="0px" y="0px" viewBox="0 0 100 125" enable-background="new 0 0 100 100" xml:space="preserve"><path fill="#000000" d="M39.764,66.655c-0.748-0.279-1.579,0.102-1.859,0.849c-0.516,1.379-2.087,4.353-3.65,4.743  c-0.774,0.194-1.245,0.978-1.052,1.753c0.164,0.657,0.753,1.095,1.401,1.095c0.116,0,0.234-0.014,0.352-0.044  c3.46-0.865,5.443-5.961,5.658-6.539C40.892,67.764,40.512,66.934,39.764,66.655z"/><path fill="#000000" d="M35.03,66.842c0.446-0.662,0.271-1.56-0.392-2.006c-0.662-0.446-1.56-0.271-2.006,0.392  c-0.561,0.833-2.427,3.097-4.299,3.565c-0.774,0.194-1.245,0.978-1.052,1.753c0.164,0.657,0.753,1.095,1.401,1.095  c0.116,0,0.234-0.014,0.352-0.044c1.432-0.358,2.883-1.278,4.312-2.734C34.362,67.828,35.003,66.882,35.03,66.842z"/><path fill="#000000" d="M30.553,62.9c-0.563-0.565-1.477-0.567-2.043-0.005c-0.021,0.02-2.095,2.058-4.477,2.654  c-0.774,0.194-1.245,0.978-1.052,1.753c0.164,0.657,0.753,1.095,1.401,1.095c0.116,0,0.234-0.014,0.352-0.044  c3.172-0.793,5.712-3.305,5.819-3.412C31.115,64.378,31.115,63.465,30.553,62.9z"/><path fill="#000000" d="M89.301,52.613c2.911-4.098,4.656-9.504,5.185-16.068c0.647-8.02-1.333-16.202-4.927-20.358  c-1.45-1.677-3.129-2.622-4.855-2.734c-0.281-0.018-0.558-0.027-0.823-0.027c-2.502,0-4.308,0.813-5.366,2.416  c-0.921,1.395-1.028,3.083-1.028,4.231c0,5.105-2.663,9.068-7.915,11.779c-2.644,1.365-5.328,2.069-6.914,2.399  C58.96,33.414,54.723,32.991,50,32.991c-4.725,0-8.963,0.424-12.662,1.262c-1.569-0.326-4.212-1.019-6.844-2.366  c-5.296-2.711-7.981-6.686-7.981-11.813c0-1.148-0.107-2.836-1.028-4.231c-1.059-1.603-2.864-2.416-5.366-2.416  c-0.264,0-0.541,0.009-0.822,0.027c-1.726,0.111-3.405,1.057-4.855,2.734c-3.594,4.156-5.574,12.338-4.927,20.358  c0.529,6.563,2.274,11.969,5.185,16.068c1.775,2.499,3.947,4.488,6.614,6.054c-0.097,0.847-0.19,1.594-0.307,2.229  c-0.513,2.79-1.365,4.773-2.531,5.892c-0.763,0.733-1.637,1.068-2.675,1.025c-0.1-0.004-0.202-0.006-0.301-0.006  c-2.243,0-4.093,1.114-4.829,2.906c-0.303,0.737-0.489,2.222-0.017,3.978c0.404,1.505,1.453,3.762,4.157,5.966  c2.848,2.321,7.299,4.182,13.231,5.532c6.95,1.582,15.684,2.384,25.958,2.384s19.008-0.802,25.958-2.384  c5.932-1.35,10.383-3.211,13.231-5.532c2.704-2.203,3.753-4.46,4.157-5.966c0.471-1.757,0.285-3.241-0.017-3.978  c-0.735-1.792-2.586-2.906-4.829-2.906c-0.099,0-0.2,0.002-0.301,0.006c-1.035,0.043-1.912-0.292-2.675-1.025  c-1.166-1.12-2.018-3.102-2.531-5.893c-0.117-0.636-0.209-1.382-0.307-2.229C85.354,57.101,87.526,55.112,89.301,52.613z   M13.056,50.939c-2.605-3.668-4.173-8.589-4.66-14.626c-0.579-7.184,1.161-14.683,4.232-18.235c0.65-0.751,1.672-1.663,2.854-1.74  c0.22-0.014,0.434-0.021,0.636-0.021c2.216,0,2.772,0.842,2.954,1.118c0.492,0.746,0.549,1.863,0.549,2.638  c0,6.212,3.304,11.187,9.555,14.386c1.046,0.535,2.088,0.977,3.077,1.34c-3.839,1.518-6.957,3.683-9.274,6.441  c-1.957,2.329-3.358,5.057-4.285,8.34c-0.481,1.705-0.78,3.377-0.996,4.911C15.874,54.253,14.342,52.75,13.056,50.939z   M83.522,68.875c1.321,1.268,2.988,1.903,4.797,1.828c1.153-0.048,2.033,0.374,2.332,1.102c0.06,0.164,0.216,1.02-0.116,2.205  c-0.434,1.545-1.531,3.069-3.173,4.407c-1.718,1.401-5.203,3.397-12.046,4.954c-6.74,1.534-15.258,2.312-25.317,2.312  s-18.576-0.778-25.317-2.312c-6.843-1.557-10.328-3.554-12.046-4.954c-1.642-1.338-2.739-2.862-3.173-4.407  c-0.332-1.185-0.176-2.04-0.119-2.198c0.286-0.697,1.091-1.112,2.154-1.112c0.059,0,0.12,0.001,0.18,0.004  c1.814,0.075,3.477-0.56,4.797-1.828c1.612-1.548,2.747-4.056,3.372-7.455c0.159-0.864,0.274-1.881,0.396-2.958  c0.469-4.134,1.111-9.795,4.947-14.361c2.09-2.488,4.97-4.433,8.561-5.781c4.307-1.617,9.773-2.437,16.245-2.437  s11.939,0.82,16.245,2.437c3.591,1.349,6.471,3.294,8.561,5.781c3.836,4.566,4.478,10.227,4.947,14.361  c0.122,1.077,0.238,2.094,0.396,2.958C80.775,64.818,81.91,67.326,83.522,68.875z M82.301,55.492  c-0.216-1.535-0.515-3.207-0.996-4.911c-0.927-3.283-2.328-6.011-4.285-8.34c-2.316-2.757-5.435-4.922-9.274-6.441  c0.989-0.363,2.031-0.805,3.077-1.34c6.251-3.2,9.555-8.175,9.555-14.386c0-0.775,0.057-1.892,0.549-2.638  c0.183-0.277,0.738-1.118,2.954-1.118c0.203,0,0.417,0.007,0.636,0.021c1.182,0.076,2.204,0.988,2.854,1.74  c3.071,3.552,4.812,11.051,4.232,18.235c-0.487,6.037-2.055,10.958-4.66,14.626C85.658,52.75,84.126,54.253,82.301,55.492z"/><text x="0" y="115" fill="#000000" font-size="5px" font-weight="bold" font-family="'Helvetica Neue', Helvetica, Arial-Unicode, Arial, Sans-serif">Created by Felisberto Piazza</text><text x="0" y="120" fill="#000000" font-size="5px" font-weight="bold" font-family="'Helvetica Neue', Helvetica, Arial-Unicode, Arial, Sans-serif">from the Noun Project</text></svg>