<svg xmlns="http://www.w3.org/2000/svg" xmlns:xlink="http://www.w3.org/1999/xlink" version="1.1" x="0px" y="0px" viewBox="0 0 100 125" enable-background="new 0 0 100 100" xml:space="preserve"><path fill="#000000" d="M79.539,51.405c-0.481-0.497-1.033-1.045-1.631-1.636c-3.096-3.068-7.466-7.422-8.947-11.974  c4.341-2.162,6.983-5.127,6.983-8.447c0-3.721-3.324-6.992-8.635-9.19c0.162-0.343,0.316-0.667,0.457-0.957  c0.008-0.016,0.009-0.033,0.016-0.048c0.328-0.614,0.523-1.271,0.523-1.978c0-5.019-8.935-7.727-17.342-7.727  s-17.343,2.708-17.343,7.727c0,0.704,0.192,1.358,0.518,1.97c0.008,0.018,0.01,0.038,0.019,0.056  c0.141,0.29,0.296,0.615,0.458,0.958c-5.309,2.198-8.633,5.469-8.633,9.189c0,3.104,2.311,5.897,6.158,8.014  c-1.335,4.708-5.897,9.242-9.091,12.406c-0.598,0.591-1.149,1.139-1.631,1.636c-3.772,3.899-5.851,9.23-5.851,15.012  c0,14.931,15.66,27.077,34.91,27.077s34.91-12.146,34.91-27.077C85.389,60.635,83.311,55.304,79.539,51.405z M50.964,12.447  c8.755,0,14.342,2.8,14.342,4.727s-5.587,4.727-14.342,4.727c-8.756,0-14.343-2.8-14.343-4.727S42.208,12.447,50.964,12.447z   M28.983,29.348c0-2.625,2.798-4.856,6.872-6.45c0.656,1.515,1.223,2.954,1.365,3.658c0.715,3.549,6.366,6.027,13.744,6.027  s13.029-2.479,13.743-6.027c0.142-0.704,0.709-2.144,1.364-3.659c4.074,1.594,6.873,3.825,6.873,6.451  c0,5.347-11.584,9.073-21.98,9.073S28.983,34.695,28.983,29.348z M50.479,90.493c-17.596,0-31.91-10.801-31.91-24.077  c0-4.998,1.778-9.589,5.007-12.926c0.468-0.483,1.005-1.016,1.586-1.591c3.333-3.303,8.022-7.972,9.713-13.249  c4.317,1.736,9.906,2.77,16.088,2.77c5.778,0,11.036-0.904,15.224-2.439c1.778,5.141,6.346,9.683,9.609,12.917  c0.581,0.575,1.118,1.107,1.586,1.591c3.229,3.337,5.007,7.928,5.007,12.926C82.389,79.693,68.075,90.493,50.479,90.493z"/><path fill="#000000" d="M50.479,53.497c-9.068,0-26.076,1.555-26.616,7.384c-0.004,0.047-0.026,0.088-0.026,0.136v8.538  c0,9.188,11.702,16.384,26.642,16.384s26.642-7.196,26.642-16.384v-8.538c0-0.048-0.021-0.089-0.026-0.136  C76.555,55.052,59.547,53.497,50.479,53.497z M74.121,69.555c0,7.255-10.826,13.384-23.642,13.384S26.838,76.81,26.838,69.555  v-4.564c5.388,2.953,16.785,3.841,23.642,3.841c6.856,0,18.254-0.889,23.642-3.841V69.555z M50.479,65.832  c-15.598,0-23.642-3.271-23.642-4.668c0-1.396,8.044-4.667,23.642-4.667s23.642,3.271,23.642,4.667  C74.121,62.561,66.077,65.832,50.479,65.832z"/><circle fill="#000000" cx="55.021" cy="76.274" r="2.384"/><circle fill="#000000" cx="59.406" cy="78.658" r="1.472"/><circle fill="#000000" cx="61.436" cy="72.95" r="3.324"/><text x="0" y="115" fill="#000000" font-size="5px" font-weight="bold" font-family="'Helvetica Neue', Helvetica, Arial-Unicode, Arial, Sans-serif">Created by Felisberto Piazza</text><text x="0" y="120" fill="#000000" font-size="5px" font-weight="bold" font-family="'Helvetica Neue', Helvetica, Arial-Unicode, Arial, Sans-serif">from the Noun Project</text></svg>