<svg xmlns="http://www.w3.org/2000/svg" xmlns:xlink="http://www.w3.org/1999/xlink" version="1.1" x="0px" y="0px" viewBox="0 0 100 125" enable-background="new 0 0 100 100" xml:space="preserve"><path fill="#000000" d="M47.651,75.205l-3.595-3.595c0.193-1.007-0.114-2.052-0.852-2.79l-2.436-2.436  c4.565-3.882,14.041-9.205,21.397-13.089c8.463-4.468,16.014-8.041,16.09-8.077c0.308-0.145,0.508-0.451,0.519-0.791  c0.05-1.624,0.921-6.036,4.78-17.839c2.325-7.109,4.657-13.583,4.681-13.648c0.119-0.331,0.037-0.7-0.212-0.949  c-0.248-0.248-0.618-0.331-0.949-0.212c-0.065,0.023-6.538,2.357-13.646,4.683c-11.801,3.861-16.214,4.732-17.837,4.782  c-0.34,0.011-0.646,0.211-0.791,0.519c-0.036,0.075-3.61,7.63-8.077,16.094c-3.883,7.358-9.205,16.834-13.084,21.397l-2.528-2.528  c-0.738-0.738-1.784-1.045-2.79-0.852l-3.595-3.595c-1.044-1.044-2.744-1.043-3.789,0.003l-0.053,0.053  c-1.046,1.046-1.047,2.746-0.004,3.79l3.595,3.595c-0.193,1.007,0.114,2.052,0.852,2.79l3.174,3.174  c-2.928,3.63-7.896,9.704-9.452,11.309l-4.12-0.082c-0.339-0.007-0.653,0.176-0.815,0.474c-0.034,0.063-0.848,1.573-1.521,3.52  c-0.909,2.633-1.116,4.756-0.614,6.315c0.03,0.189,0.122,0.372,0.27,0.513c0.005,0.005,0.01,0.011,0.015,0.016  c0.121,0.121,0.276,0.208,0.449,0.245c0.016,0.003,0.031,0.006,0.047,0.009c1.563,0.506,3.69,0.301,6.325-0.609  c1.948-0.673,3.458-1.489,3.521-1.524c0.297-0.162,0.48-0.476,0.474-0.814l-0.08-4.112c1.605-1.556,7.679-6.524,11.309-9.452  l3.112,3.112c0.738,0.738,1.784,1.045,2.79,0.852l3.595,3.595c1.038,1.038,2.734,1.032,3.779-0.014l0.053-0.053  C48.683,77.939,48.689,76.244,47.651,75.205z M76.999,43.809c-1.801,0.86-8.403,4.042-15.674,7.881  C50.568,57.367,43.23,61.872,39.48,65.096l-1.647-1.647c0.012-0.01,0.027-0.014,0.038-0.025l47.318-47.318  C82.679,23.282,77.507,38.537,76.999,43.809z M48.329,38.698c3.839-7.274,7.021-13.878,7.881-15.679  c5.272-0.509,20.521-5.682,27.696-8.193L36.589,62.143c-0.011,0.011-0.015,0.026-0.025,0.038l-1.638-1.638  C38.148,56.795,42.652,49.457,48.329,38.698z M21.418,79.968c-0.158,0.172-0.244,0.398-0.239,0.631l0.076,3.926  c-0.568,0.28-1.585,0.749-2.763,1.156c-2.04,0.705-3.71,0.937-4.87,0.68c-0.49-2.239,0.964-5.867,1.835-7.626l3.937,0.079  c0.234,0.005,0.46-0.081,0.632-0.239c1.411-1.298,7.715-9.064,9.764-11.601l3.229,3.229C30.482,72.253,22.716,78.557,21.418,79.968z   M46.303,77.755c-0.339,0.339-0.884,0.345-1.215,0.014l-3.973-3.973c-0.258-0.258-0.646-0.336-0.984-0.198  c-0.49,0.2-1.064,0.089-1.428-0.275l-3.687-3.687l-4.656-4.656l-3.75-3.75c-0.365-0.365-0.475-0.939-0.275-1.429  c0.138-0.338,0.06-0.726-0.198-0.984l-3.973-3.973c-0.331-0.331-0.33-0.893,0.004-1.226l0.053-0.053  c0.333-0.333,0.894-0.334,1.225-0.003l3.973,3.973c0.258,0.258,0.646,0.336,0.984,0.198c0.49-0.2,1.064-0.089,1.429,0.275  l3.054,3.054c0.038,0.066,0.071,0.134,0.127,0.19l5.76,5.76c0.056,0.056,0.124,0.089,0.19,0.127l2.961,2.961  c0.365,0.365,0.475,0.939,0.275,1.428c-0.138,0.338-0.06,0.726,0.198,0.984l3.973,3.973c0.331,0.331,0.325,0.876-0.013,1.215  L46.303,77.755z"/><path fill="#000000" d="M18.657,81.326c-0.17-0.17-0.401-0.265-0.641-0.265h-1.31c-0.501,0-0.906,0.406-0.906,0.906v1.31  c0,0.24,0.096,0.471,0.265,0.641c0.17,0.17,0.401,0.265,0.641,0.266l1.311,0c0.501,0,0.906-0.406,0.906-0.906v-1.311  C18.922,81.727,18.827,81.496,18.657,81.326z"/><text x="0" y="115" fill="#000000" font-size="5px" font-weight="bold" font-family="'Helvetica Neue', Helvetica, Arial-Unicode, Arial, Sans-serif">Created by Felisberto Piazza</text><text x="0" y="120" fill="#000000" font-size="5px" font-weight="bold" font-family="'Helvetica Neue', Helvetica, Arial-Unicode, Arial, Sans-serif">from the Noun Project</text></svg>